<svg xmlns="http://www.w3.org/2000/svg" width="1200" height="1200" viewBox="0 0 1200 1200">
<defs><style>
.bone{stroke:#F0EDEB;fill:none;stroke-linecap:round;stroke-linejoin:round}
.cyan{stroke:#00E5FF;fill:none}
.magenta{stroke:#FF2EF7;fill:none}
.concrete{stroke:#7C7A75;fill:none;opacity:.7}
.copper{stroke:#B87333;fill:none}
</style></defs>
<g transform="translate(600,600)">
<circle r="500" class="bone" stroke-width="18" stroke-dasharray="64 34 22 18 80 40"/>
<circle r="380" class="concrete" stroke-width="8" stroke-dasharray="8 24"/>
<!-- ticks -->
<line x1="0.0" y1="-460.0" x2="0.0" y2="-500.0" class="bone" stroke-width="14"/><line x1="230.0" y1="-398.4" x2="250.0" y2="-433.0" class="bone" stroke-width="14"/><line x1="460.0" y1="0.0" x2="500.0" y2="0.0" class="bone" stroke-width="14"/><line x1="398.4" y1="230.0" x2="433.0" y2="250.0" class="bone" stroke-width="14"/><line x1="230.0" y1="398.4" x2="250.0" y2="433.0" class="bone" stroke-width="14"/><line x1="0.0" y1="460.0" x2="0.0" y2="500.0" class="bone" stroke-width="14"/><line x1="-398.4" y1="230.0" x2="-433.0" y2="250.0" class="bone" stroke-width="14"/><line x1="-398.4" y1="-230.0" x2="-433.0" y2="-250.0" class="bone" stroke-width="14"/><line x1="-230.0" y1="-398.4" x2="-250.0" y2="-433.0" class="bone" stroke-width="14"/>
<!-- siren arcs -->
<path d="M -240 -260 A 340 340 0 0 1 240 -260" class="magenta" stroke-width="10"/>
<path d="M -200 -210 A 280 280 0 0 1 200 -210" class="magenta" stroke-width="10"/>
<!-- triangle -->
<polygon points="0,-105 -182,105 182,105" class="cyan" stroke-width="14"/>
<!-- keyhole -->
<circle cx="0" cy="35" r="62" fill="#F0EDEB"/>
<rect x="-28" y="35" width="56" height="120" rx="28" fill="#F0EDEB"/>
<!-- notch at 7:15 -->
<line x1="-261.8" y1="341.1"
      x2="-299.5" y2="390.3" class="copper" stroke-width="18"/>
</g></svg>